# xmcd
#
# Track frame offsets: 
#        150
#        19670
#        34930
#        47077
#        64637
#        85042
#        106917
#        121972
#        135727
#        153315
#        178495
#        195865
#        209280
#        225277
#        241972
#
# Disc length: 3403 seconds
#
# Revision: 6
# Processed by: cddbd v1.5.2PL0 Copyright (c) Steve Scherf et al.
# Submitted via: ExactAudioCopyFreeDBPlugin 1.0
#
DISCID=bc0d490f
DTITLE=Various Artist - The Love Collection - Volume III
DYEAR=1989
DGENRE=Lovesongs
TTITLE0=Dionne Warwick - Heartbreaker
TTITLE1=Champaign - How 'bout Us
TTITLE2=Deniece Williams and Johnny Mathis - You're All I Need
TTITLE3=Hot Chocolate - I'll Put You Together Again
TTITLE4=Earth, Wind and Fire - After The Love Has Gone
TTITLE5=Billy Paul - Me and Mrs. Jones
TTITLE6=REO Speedwagon - Keep On Loving You
TTITLE7=Galagher and Lyle - I Want To Stay With You
TTITLE8=Air Supply - All Out Of Love
TTITLE9=Elton John - Don´t Let The Sun Go Down On Me
TTITLE10=Sheena Easton and Kenny Rogers - We´ve Got Tonight
TTITLE11=Dr. Hook - A Little Bit More
TTITLE12=The Three Degrees - What I Did For Love
TTITLE13=Harold Melvin - Wake Up Everybody
TTITLE14=Percy Sledge - When A Man Loves A Woman
EXTD=YEAR: 1989
EXTT0=
EXTT1=
EXTT2=
EXTT3=
EXTT4=
EXTT5=
EXTT6=
EXTT7=
EXTT8=
EXTT9=
EXTT10=
EXTT11=
EXTT12=
EXTT13=
EXTT14=
PLAYORDER=
